<svg xmlns="http://www.w3.org/2000/svg" viewBox="0 0 500 500"><g id="freepik--background-simple--inject-3"><path d="M462.05,235.2c-11.85-2.67-15.55-8.9-22.18-33.8S369.53,183.66,354,170.28s17-28.47,22.18-64-171-45.36-191.7-15.12A43.83,43.83,0,0,0,182.11,95c-.27-2.36-2.74-17.13-22.18-17.74-21.31-.61-15.6,17.46-21.31,21.87s-7.25-2.48-12.94,1.87-3.1,13-7.77,14.3S107,109.66,101.35,114s-5.7,8.09-8.29,8.09-7.77-2.49-10.87,0-6.73,5.6-6.73,5.6H180.84c3.09,9.82,5.5,15.92-9.74,16.83C141.52,146.32,70.42,149,57,173.94s32,17.75,29,31.08-37,37.35-37,37.35l-9.62,5.34H472.43S473.88,237.86,462.05,235.2Z" style="fill:#F25F3A"></path><path d="M462.05,235.2c-11.85-2.67-15.55-8.9-22.18-33.8S369.53,183.66,354,170.28s17-28.47,22.18-64-171-45.36-191.7-15.12A43.83,43.83,0,0,0,182.11,95c-.27-2.36-2.74-17.13-22.18-17.74-21.31-.61-15.6,17.46-21.31,21.87s-7.25-2.48-12.94,1.87-3.1,13-7.77,14.3S107,109.66,101.35,114s-5.7,8.09-8.29,8.09-7.77-2.49-10.87,0-6.73,5.6-6.73,5.6H180.84c3.09,9.82,5.5,15.92-9.74,16.83C141.52,146.32,70.42,149,57,173.94s32,17.75,29,31.08-37,37.35-37,37.35l-9.62,5.34H472.43S473.88,237.86,462.05,235.2Z" style="fill:#fff;opacity:0.5"></path></g><g id="freepik--Clouds--inject-3"><path d="M367.34,157.71H434a3.75,3.75,0,0,0-2.11-4.23c-2.9-1.7-4.23-.28-5.28-1.7s2.9-5.09-5-8.75c0,0-.53-7.93-11.32-8.2s-7.91,7.91-10.81,9.89-3.68-1.13-6.58.84-1.58,5.94-4,6.51-5.52-2.55-8.45-.57-2.89,3.67-4.22,3.67-3.95-1.13-5.54,0S367.34,157.71,367.34,157.71Z" style="fill:#F25F3A"></path><path d="M367.34,157.71H434a3.75,3.75,0,0,0-2.11-4.23c-2.9-1.7-4.23-.28-5.28-1.7s2.9-5.09-5-8.75c0,0-.53-7.93-11.32-8.2s-7.91,7.91-10.81,9.89-3.68-1.13-6.58.84-1.58,5.94-4,6.51-5.52-2.55-8.45-.57-2.89,3.67-4.22,3.67-3.95-1.13-5.54,0S367.34,157.71,367.34,157.71Z" style="fill:#fff;opacity:0.6"></path><path d="M140,191.28h66.68a3.73,3.73,0,0,0-2.11-4.22c-2.9-1.7-4.23-.29-5.28-1.7s2.9-5.09-5-8.76c0,0-.53-7.92-11.32-8.2s-7.91,7.92-10.81,9.89-3.68-1.13-6.58.85-1.58,5.93-4,6.5-5.52-2.54-8.45-.57-2.89,3.68-4.22,3.68-3.95-1.13-5.54,0S140,191.28,140,191.28Z" style="fill:#F25F3A"></path><path d="M140,191.28h66.68a3.73,3.73,0,0,0-2.11-4.22c-2.9-1.7-4.23-.29-5.28-1.7s2.9-5.09-5-8.76c0,0-.53-7.92-11.32-8.2s-7.91,7.92-10.81,9.89-3.68-1.13-6.58.85-1.58,5.93-4,6.5-5.52-2.54-8.45-.57-2.89,3.68-4.22,3.68-3.95-1.13-5.54,0S140,191.28,140,191.28Z" style="fill:#fff;opacity:0.8"></path><path d="M276.36,120.91c2.11-1.55,5.76,0,7.55,0s1.81-2.32,5.77-5,8.28,1.54,11.51.77,1.45-6.18,5.41-8.88,5,1.55,9-1.15,0-13.9,14.79-13.52,15.48,11.19,15.48,11.19c10.8,5,5.4,10,6.84,12s3.24,0,7.2,2.31,2.87,5.79,2.87,5.79H271.66S274.18,122.46,276.36,120.91Z" style="fill:#F25F3A"></path><path d="M276.36,120.91c2.11-1.55,5.76,0,7.55,0s1.81-2.32,5.77-5,8.28,1.54,11.51.77,1.45-6.18,5.41-8.88,5,1.55,9-1.15,0-13.9,14.79-13.52,15.48,11.19,15.48,11.19c10.8,5,5.4,10,6.84,12s3.24,0,7.2,2.31,2.87,5.79,2.87,5.79H271.66S274.18,122.46,276.36,120.91Z" style="fill:#fff;opacity:0.8"></path></g><g id="freepik--Island--inject-3"><path d="M445.05,229.38s-12.31-12.52-26-12.52-22.58,7.52-38.32,10-32.85-1.67-43.79-1.67-22.59-.82-32.85,4.18-20.53-5.84-31.49-5.84-21.21,0-32.16.84-19.16-3.34-30.79-.84-17.79,3.31-24.63,3.31-11-6.67-22.58-7.5-15.75,4.16-20.54,4.16-15.73-3.33-17.79-3.33-13,4.17-15,6.67-7.53,2.51-17.11,2.51-10.26-.83-17.1,0-11,2.5-15.74,2.5-14.38,5.87-14.38,5.87L33.78,248.58H479Z" style="fill:#F25F3A"></path><path d="M445.05,229.38s-12.31-12.52-26-12.52-22.58,7.52-38.32,10-32.85-1.67-43.79-1.67-22.59-.82-32.85,4.18-20.53-5.84-31.49-5.84-21.21,0-32.16.84-19.16-3.34-30.79-.84-17.79,3.31-24.63,3.31-11-6.67-22.58-7.5-15.75,4.16-20.54,4.16-15.73-3.33-17.79-3.33-13,4.17-15,6.67-7.53,2.51-17.11,2.51-10.26-.83-17.1,0-11,2.5-15.74,2.5-14.38,5.87-14.38,5.87L33.78,248.58H479Z" style="fill:#fff;opacity:0.1;isolation:isolate"></path></g><g id="freepik--Bridge--inject-3"><polygon points="69.29 359.83 90.64 373.21 450.71 279.92 417.62 277.72 417.62 275.65 276.62 307.49 246.02 314.52 229.06 319.49 69.29 359.83" style="fill:#F25F3A"></polygon><circle cx="105.24" cy="361.15" r="1.38" style="fill:#fff"></circle><circle cx="143.13" cy="349.65" r="1.38" style="fill:#fff"></circle><circle cx="201.1" cy="334.32" r="1.38" style="fill:#fff"></circle><path d="M219.33,330.64a1.39,1.39,0,1,1-1.39-1.38h0a1.37,1.37,0,0,1,1.39,1.36Z" style="fill:#fff"></path><path d="M239.29,324.2a1.39,1.39,0,1,1-1.39-1.39h0A1.39,1.39,0,0,1,239.29,324.2Z" style="fill:#fff"></path><circle cx="286.67" cy="312.23" r="1.38" style="fill:#fff"></circle><circle cx="315.2" cy="305.79" r="1.3" style="fill:#fff"></circle><path d="M351.47,298.09a1.31,1.31,0,1,1-1.32-1.3h0a1.3,1.3,0,0,1,1.3,1.3Z" style="fill:#fff"></path><circle cx="369.49" cy="294.14" r="1.3" style="fill:#fff"></circle><path d="M386.75,289.23a1.31,1.31,0,1,1-2.61.23.88.88,0,0,1,0-.23,1.3,1.3,0,0,1,1.42-1.19A1.32,1.32,0,0,1,386.75,289.23Z" style="fill:#fff"></path><circle cx="137.61" cy="355.48" r="1.38" style="fill:#fff"></circle><circle cx="131.16" cy="353.03" r="1.38" style="fill:#fff"></circle><path d="M157.69,346.43a1.38,1.38,0,1,1-1.38-1.38h0A1.38,1.38,0,0,1,157.69,346.43Z" style="fill:#fff"></path><path d="M183.76,340.34a1.38,1.38,0,1,1-1.39-1.38h0A1.37,1.37,0,0,1,183.76,340.34Z" style="fill:#fff"></path><path d="M169.68,347.51a1.38,1.38,0,1,1-1.38-1.39h0A1.38,1.38,0,0,1,169.68,347.51Z" style="fill:#fff"></path><circle cx="202.32" cy="338.31" r="1.38" style="fill:#fff"></circle><circle cx="244.96" cy="323.59" r="1.38" style="fill:#fff"></circle><path d="M240.66,330.33a1.39,1.39,0,1,1-1.38-1.38h0a1.37,1.37,0,0,1,1.37,1.37Z" style="fill:#fff"></path><circle cx="304.77" cy="312.08" r="1.38" style="fill:#fff"></circle><circle cx="327.17" cy="305.03" r="1.38" style="fill:#fff"></circle><circle cx="341.89" cy="300.73" r="1.38" style="fill:#fff"></circle><circle cx="366.37" cy="292.85" r="1.38" style="fill:#fff"></circle><path d="M375.88,288.87a1.38,1.38,0,1,1,0,1.95h0A1.38,1.38,0,0,1,375.88,288.87Z" style="fill:#fff"></path><circle cx="393.67" cy="286.42" r="1.38" style="fill:#fff"></circle><circle cx="328.95" cy="300.94" r="1.38" style="fill:#fff"></circle><path d="M118.43,357.79a1.38,1.38,0,1,1-1.38-1.39h0A1.38,1.38,0,0,1,118.43,357.79Z" style="fill:#fff"></path><polyline points="227.31 411.06 227.91 339.08 259.07 330.54 259.07 425.04" style="fill:#F25F3A;stroke:#2e353a;stroke-linecap:round;stroke-linejoin:round;stroke-width:1.0562248229980469px"></polyline><path d="M230.1,319.28s-5.22.81-5.61,2.76v1.22l5.4-1.2Z" style="fill:#F25F3A;stroke:#2e353a;stroke-linecap:round;stroke-linejoin:round;stroke-width:1.0562248229980469px"></path><polygon points="234.88 106.09 231.39 107.12 232.17 148.71 231.13 150.27 231.51 195.87 230.23 197.29 230.35 253.01 229.19 254.69 230.1 321.93 233.08 321.54 232.69 254.69 233.46 252.49 233.2 197.42 234.63 194.71 234.24 150.13 235.4 148.19 234.88 106.09" style="fill:#F25F3A;stroke:#2e353a;stroke-linecap:round;stroke-linejoin:round;stroke-width:1.0562248229980469px"></polygon><path d="M234.88,106.09l6.57,1.55S245,219.87,245,219.45s1.82,70.38,1.82,70.38l.28,28.09-14,3.62-.39-66.85.77-2.2-.26-55.07,1.43-2.72-.39-44.57,1.16-1.94Z" style="fill:#2e353a;stroke:#2e353a;stroke-linecap:round;stroke-linejoin:round;stroke-width:1.0562248229980469px"></path><path d="M242.06,106.75s-.57-4-3.9-4.48-6.74,1.89-6.77,4.85" style="fill:#2e353a;stroke:#2e353a;stroke-linecap:round;stroke-linejoin:round;stroke-width:1.0562248229980469px"></path><polyline points="238.88 102.27 238.16 99.23 236.28 99.23 235.41 102.27" style="fill:#2e353a;stroke:#2e353a;stroke-linecap:round;stroke-linejoin:round;stroke-width:1.0562248229980469px"></polyline><path d="M234.39,102.82S112.77,172.23,41.88,203.13" style="fill:none;stroke:#2e353a;stroke-linecap:round;stroke-linejoin:round;stroke-width:3.1686744689941406px"></path><line x1="254.51" y1="118.28" x2="260.63" y2="123.53" style="fill:none;stroke:#2e353a;stroke-linecap:round;stroke-linejoin:round;stroke-width:3.1686744689941406px"></line><path d="M272.3,132.85s110.23,96,172.35,116.37" style="fill:none;stroke:#2e353a;stroke-linecap:round;stroke-linejoin:round;stroke-width:3.1686744689941406px"></path><polygon points="236.83 120.08 236.83 131.09 241.1 131.61 241.1 127.86 241.76 126.95 241.5 124.61 242.28 122.28 242.4 121.64 244.47 121.24 244.6 120.34 261.57 116.97 261.45 114.25 236.83 120.08" style="fill:#2e353a;stroke:#2e353a;stroke-linecap:round;stroke-linejoin:round;stroke-width:1.0562248229980469px"></polygon><polygon points="236.83 108.67 236.83 120.08 261.45 114.25 261.45 101.94 236.83 108.67" style="fill:#F25F3A;stroke:#2e353a;stroke-linecap:round;stroke-linejoin:round;stroke-width:1.0562248229980469px"></polygon><line x1="239.01" y1="109.45" x2="238.99" y2="116.93" style="fill:none;stroke:#2e353a;stroke-linecap:round;stroke-linejoin:round;stroke-width:1.0562248229980469px"></line><line x1="240.89" y1="108.99" x2="240.86" y2="116.48" style="fill:none;stroke:#2e353a;stroke-linecap:round;stroke-linejoin:round;stroke-width:1.0562248229980469px"></line><line x1="242.76" y1="108.54" x2="242.74" y2="116.03" style="fill:none;stroke:#2e353a;stroke-linecap:round;stroke-linejoin:round;stroke-width:1.0562248229980469px"></line><line x1="244.64" y1="108.08" x2="244.61" y2="115.57" style="fill:none;stroke:#2e353a;stroke-linecap:round;stroke-linejoin:round;stroke-width:1.0562248229980469px"></line><line x1="246.51" y1="107.63" x2="246.49" y2="115.12" style="fill:none;stroke:#2e353a;stroke-linecap:round;stroke-linejoin:round;stroke-width:1.0562248229980469px"></line><line x1="248.39" y1="107.18" x2="248.36" y2="114.66" style="fill:none;stroke:#2e353a;stroke-linecap:round;stroke-linejoin:round;stroke-width:1.0562248229980469px"></line><line x1="250.26" y1="106.72" x2="250.24" y2="114.21" style="fill:none;stroke:#2e353a;stroke-linecap:round;stroke-linejoin:round;stroke-width:1.0562248229980469px"></line><line x1="252.14" y1="106.27" x2="252.12" y2="113.76" style="fill:none;stroke:#2e353a;stroke-linecap:round;stroke-linejoin:round;stroke-width:1.0562248229980469px"></line><line x1="254.01" y1="105.81" x2="253.99" y2="113.3" style="fill:none;stroke:#2e353a;stroke-linecap:round;stroke-linejoin:round;stroke-width:1.0562248229980469px"></line><line x1="255.89" y1="105.36" x2="255.87" y2="112.85" style="fill:none;stroke:#2e353a;stroke-linecap:round;stroke-linejoin:round;stroke-width:1.0562248229980469px"></line><line x1="257.76" y1="104.9" x2="257.74" y2="112.39" style="fill:none;stroke:#2e353a;stroke-linecap:round;stroke-linejoin:round;stroke-width:1.0562248229980469px"></line><line x1="259.64" y1="104.45" x2="259.62" y2="111.94" style="fill:none;stroke:#2e353a;stroke-linecap:round;stroke-linejoin:round;stroke-width:1.0562248229980469px"></line><polygon points="236.83 163.58 236.83 175.86 241.1 176.38 241.1 172.62 241.76 171.72 241.5 169.39 242.28 167.05 242.4 166.41 244.47 166.02 244.6 165.11 261.57 163.05 261.45 160.31 236.83 163.58" style="fill:#2e353a;stroke:#2e353a;stroke-linecap:round;stroke-linejoin:round;stroke-width:1.0562248229980469px"></polygon><polygon points="236.83 152.14 236.83 163.53 261.45 160.31 261.45 148.01 236.83 152.14" style="fill:#F25F3A;stroke:#2e353a;stroke-linecap:round;stroke-linejoin:round;stroke-width:1.0562248229980469px"></polygon><line x1="239.01" y1="153.14" x2="238.99" y2="160.63" style="fill:none;stroke:#2e353a;stroke-linecap:round;stroke-linejoin:round;stroke-width:1.0562248229980469px"></line><line x1="240.89" y1="152.88" x2="240.86" y2="160.37" style="fill:none;stroke:#2e353a;stroke-linecap:round;stroke-linejoin:round;stroke-width:1.0562248229980469px"></line><line x1="242.76" y1="152.62" x2="242.74" y2="160.11" style="fill:none;stroke:#2e353a;stroke-linecap:round;stroke-linejoin:round;stroke-width:1.0562248229980469px"></line><line x1="244.64" y1="152.37" x2="244.61" y2="159.86" style="fill:none;stroke:#2e353a;stroke-linecap:round;stroke-linejoin:round;stroke-width:1.0562248229980469px"></line><line x1="246.51" y1="152.12" x2="246.49" y2="159.61" style="fill:none;stroke:#2e353a;stroke-linecap:round;stroke-linejoin:round;stroke-width:1.0562248229980469px"></line><line x1="248.39" y1="151.86" x2="248.36" y2="159.35" style="fill:none;stroke:#2e353a;stroke-linecap:round;stroke-linejoin:round;stroke-width:1.0562248229980469px"></line><line x1="250.26" y1="151.61" x2="250.24" y2="159.1" style="fill:none;stroke:#2e353a;stroke-linecap:round;stroke-linejoin:round;stroke-width:1.0562248229980469px"></line><line x1="252.14" y1="151.35" x2="252.12" y2="158.84" style="fill:none;stroke:#2e353a;stroke-linecap:round;stroke-linejoin:round;stroke-width:1.0562248229980469px"></line><line x1="254.01" y1="151.09" x2="253.99" y2="158.58" style="fill:none;stroke:#2e353a;stroke-linecap:round;stroke-linejoin:round;stroke-width:1.0562248229980469px"></line><line x1="255.89" y1="150.84" x2="255.87" y2="158.33" style="fill:none;stroke:#2e353a;stroke-linecap:round;stroke-linejoin:round;stroke-width:1.0562248229980469px"></line><line x1="257.76" y1="150.59" x2="257.74" y2="158.07" style="fill:none;stroke:#2e353a;stroke-linecap:round;stroke-linejoin:round;stroke-width:1.0562248229980469px"></line><line x1="259.64" y1="150.33" x2="259.62" y2="157.82" style="fill:none;stroke:#2e353a;stroke-linecap:round;stroke-linejoin:round;stroke-width:1.0562248229980469px"></line><polygon points="236.83 210.79 236.83 225.01 241.1 224.83 241.1 220.33 241.76 219.49 241.5 217.13 242.28 214.89 242.4 214.25 244.47 214.1 244.6 213.21 261.57 213.06 261.45 210.32 236.83 210.79" style="fill:#2e353a;stroke:#2e353a;stroke-linecap:round;stroke-linejoin:round;stroke-width:1.0562248229980469px"></polygon><polygon points="236.83 199.36 236.83 210.76 261.45 210.32 261.45 198.01 236.83 199.36" style="fill:#F25F3A;stroke:#2e353a;stroke-linecap:round;stroke-linejoin:round;stroke-width:1.0562248229980469px"></polygon><line x1="239.01" y1="200.61" x2="238.99" y2="208.09" style="fill:none;stroke:#2e353a;stroke-linecap:round;stroke-linejoin:round;stroke-width:1.0562248229980469px"></line><line x1="240.89" y1="200.57" x2="240.86" y2="208.04" style="fill:none;stroke:#2e353a;stroke-linecap:round;stroke-linejoin:round;stroke-width:1.0562248229980469px"></line><line x1="242.76" y1="200.51" x2="242.74" y2="208" style="fill:none;stroke:#2e353a;stroke-linecap:round;stroke-linejoin:round;stroke-width:1.0562248229980469px"></line><line x1="244.64" y1="200.47" x2="244.61" y2="207.96" style="fill:none;stroke:#2e353a;stroke-linecap:round;stroke-linejoin:round;stroke-width:1.0562248229980469px"></line><line x1="246.51" y1="200.43" x2="246.49" y2="207.92" style="fill:none;stroke:#2e353a;stroke-linecap:round;stroke-linejoin:round;stroke-width:1.0562248229980469px"></line><line x1="248.39" y1="200.39" x2="248.36" y2="207.88" style="fill:none;stroke:#2e353a;stroke-linecap:round;stroke-linejoin:round;stroke-width:1.0562248229980469px"></line><line x1="250.26" y1="200.34" x2="250.24" y2="207.83" style="fill:none;stroke:#2e353a;stroke-linecap:round;stroke-linejoin:round;stroke-width:1.0562248229980469px"></line><line x1="252.14" y1="200.3" x2="252.12" y2="207.78" style="fill:none;stroke:#2e353a;stroke-linecap:round;stroke-linejoin:round;stroke-width:1.0562248229980469px"></line><line x1="254.01" y1="200.26" x2="253.99" y2="207.74" style="fill:none;stroke:#2e353a;stroke-linecap:round;stroke-linejoin:round;stroke-width:1.0562248229980469px"></line><line x1="255.89" y1="200.21" x2="255.87" y2="207.7" style="fill:none;stroke:#2e353a;stroke-linecap:round;stroke-linejoin:round;stroke-width:1.0562248229980469px"></line><line x1="257.76" y1="200.17" x2="257.74" y2="207.65" style="fill:none;stroke:#2e353a;stroke-linecap:round;stroke-linejoin:round;stroke-width:1.0562248229980469px"></line><line x1="259.64" y1="200.12" x2="259.62" y2="207.61" style="fill:none;stroke:#2e353a;stroke-linecap:round;stroke-linejoin:round;stroke-width:1.0562248229980469px"></line><polygon points="236.83 268.86 236.83 283.08 241.1 282.52 241.1 278.76 241.76 277.99 241.5 275.6 242.28 273.43 242.4 272.8 244.47 272.82 244.6 271.95 261.57 273.26 261.45 270.5 236.83 268.86" style="fill:#2e353a;stroke:#2e353a;stroke-linecap:round;stroke-linejoin:round;stroke-width:1.0562248229980469px"></polygon><polygon points="236.83 257.42 236.83 268.83 261.45 270.5 261.45 258.18 236.83 257.42" style="fill:#F25F3A;stroke:#2e353a;stroke-linecap:round;stroke-linejoin:round;stroke-width:1.0562248229980469px"></polygon><line x1="239.01" y1="258.86" x2="238.99" y2="266.35" style="fill:none;stroke:#2e353a;stroke-linecap:round;stroke-linejoin:round;stroke-width:1.0562248229980469px"></line><line x1="240.89" y1="258.98" x2="240.86" y2="266.46" style="fill:none;stroke:#2e353a;stroke-linecap:round;stroke-linejoin:round;stroke-width:1.0562248229980469px"></line><line x1="242.76" y1="259.09" x2="242.74" y2="266.58" style="fill:none;stroke:#2e353a;stroke-linecap:round;stroke-linejoin:round;stroke-width:1.0562248229980469px"></line><line x1="244.64" y1="259.21" x2="244.61" y2="266.7" style="fill:none;stroke:#2e353a;stroke-linecap:round;stroke-linejoin:round;stroke-width:1.0562248229980469px"></line><line x1="246.51" y1="259.32" x2="246.49" y2="266.81" style="fill:none;stroke:#2e353a;stroke-linecap:round;stroke-linejoin:round;stroke-width:1.0562248229980469px"></line><line x1="248.39" y1="259.44" x2="248.36" y2="266.93" style="fill:none;stroke:#2e353a;stroke-linecap:round;stroke-linejoin:round;stroke-width:1.0562248229980469px"></line><line x1="250.26" y1="259.57" x2="250.24" y2="267.05" style="fill:none;stroke:#2e353a;stroke-linecap:round;stroke-linejoin:round;stroke-width:1.0562248229980469px"></line><line x1="252.14" y1="259.68" x2="252.12" y2="267.16" style="fill:none;stroke:#2e353a;stroke-linecap:round;stroke-linejoin:round;stroke-width:1.0562248229980469px"></line><line x1="254.01" y1="259.8" x2="253.99" y2="267.28" style="fill:none;stroke:#2e353a;stroke-linecap:round;stroke-linejoin:round;stroke-width:1.0562248229980469px"></line><line x1="255.89" y1="259.92" x2="255.87" y2="267.39" style="fill:none;stroke:#2e353a;stroke-linecap:round;stroke-linejoin:round;stroke-width:1.0562248229980469px"></line><line x1="257.76" y1="260.03" x2="257.74" y2="267.51" style="fill:none;stroke:#2e353a;stroke-linecap:round;stroke-linejoin:round;stroke-width:1.0562248229980469px"></line><line x1="259.64" y1="260.15" x2="259.62" y2="267.63" style="fill:none;stroke:#2e353a;stroke-linecap:round;stroke-linejoin:round;stroke-width:1.0562248229980469px"></line><line x1="242.4" y1="121.63" x2="237.33" y2="120.5" style="fill:none;stroke:#F25F3A;stroke-linecap:round;stroke-linejoin:round;stroke-width:0.5281124114990234px"></line><line x1="241.76" y1="126.95" x2="237.2" y2="126.09" style="fill:none;stroke:#F25F3A;stroke-linecap:round;stroke-linejoin:round;stroke-width:0.5281124114990234px"></line><line x1="242.4" y1="166.41" x2="237.2" y2="166.06" style="fill:none;stroke:#F25F3A;stroke-linecap:round;stroke-linejoin:round;stroke-width:0.5281124114990234px"></line><line x1="241.76" y1="171.72" x2="237.06" y2="171.1" style="fill:none;stroke:#F25F3A;stroke-linecap:round;stroke-linejoin:round;stroke-width:0.5281124114990234px"></line><line x1="242.4" y1="214.26" x2="236.85" y2="214.26" style="fill:none;stroke:#F25F3A;stroke-linecap:round;stroke-linejoin:round;stroke-width:0.5281124114990234px"></line><line x1="241.1" y1="220.33" x2="236.92" y2="220.33" style="fill:none;stroke:#F25F3A;stroke-linecap:round;stroke-linejoin:round;stroke-width:0.5281124114990234px"></line><line x1="236.65" y1="278.64" x2="241.1" y2="278.76" style="fill:none;stroke:#F25F3A;stroke-linecap:round;stroke-linejoin:round;stroke-width:0.5281124114990234px"></line><line x1="236.94" y1="272.48" x2="242.4" y2="272.8" style="fill:none;stroke:#F25F3A;stroke-linecap:round;stroke-linejoin:round;stroke-width:0.5281124114990234px"></line><line x1="241.08" y1="348.88" x2="248.84" y2="346.54" style="fill:none;stroke:#2e353a;stroke-linecap:round;stroke-linejoin:round;stroke-width:1.0562248229980469px"></line><polygon points="238.91 336.47 231.51 338.74 230.27 416.79 234.65 415.75 238.31 418.18 238.91 336.47" style="fill:#2e353a;stroke:#2e353a;stroke-linecap:round;stroke-linejoin:round;stroke-width:1.0562248229980469px"></polygon><path d="M241.51,367.56v21.36l5.64-6.58a5.39,5.39,0,0,0,.31-4.39C246.57,375.72,241.51,367.56,241.51,367.56Z" style="fill:#2e353a;stroke:#2e353a;stroke-linecap:round;stroke-linejoin:round;stroke-width:1.0562248229980469px"></path><path d="M258.8,376.66l-4.4,3.17s-1.24,1.88-.3,3.45,4.39,11.62,4.39,11.62Z" style="fill:#2e353a;stroke:#2e353a;stroke-linecap:round;stroke-linejoin:round;stroke-width:1.0562248229980469px"></path><path d="M244.67,390.47l4.71-5.29s.94-.94,2.51,1.57a106,106,0,0,1,4.7,10.36Z" style="fill:#2e353a;stroke:#2e353a;stroke-linecap:round;stroke-linejoin:round;stroke-width:1.0562248229980469px"></path><path d="M254.29,332l-7.68,2.12-2.11,2.95v1.62L258.13,342l.06-2.34S256.13,335.48,254.29,332Z" style="fill:#2e353a;stroke:#2e353a;stroke-linecap:round;stroke-linejoin:round;stroke-width:1.0562248229980469px"></path><path d="M258.17,344l-3.77,2.2a18,18,0,0,0,1.26,3.17c.94,1.88,3.17,5.64,3.17,5.64Z" style="fill:#2e353a;stroke:#2e353a;stroke-linecap:round;stroke-linejoin:round;stroke-width:1.0562248229980469px"></path><polyline points="248.84 346.54 242.89 355.01 241.08 355.01 241.08 348.88" style="fill:#2e353a;stroke:#2e353a;stroke-linecap:round;stroke-linejoin:round;stroke-width:1.0562248229980469px"></polyline><path d="M258.14,363.3l-13.63-3.24v-1.63l6.12-8.65s.9-1.44,2.89,2.16,4.69,9,4.69,9Z" style="fill:#2e353a;stroke:#2e353a;stroke-linecap:round;stroke-linejoin:round;stroke-width:1.0562248229980469px"></path><path d="M258.74,367.8l-14.41-4.14v1.61l6.48,11.18a1.59,1.59,0,0,0,2.17-.19c1.05-1.06,5.67-6.24,5.67-6.24l.09-2.22" style="fill:#2e353a;stroke:#2e353a;stroke-linecap:round;stroke-linejoin:round;stroke-width:1.0562248229980469px"></path><path d="M241.51,398.18v21.37l5.64-5.06a4.92,4.92,0,0,0,.31-4.31C246.57,407.69,241.51,398.18,241.51,398.18Z" style="fill:#2e353a;stroke:#2e353a;stroke-linecap:round;stroke-linejoin:round;stroke-width:1.0562248229980469px"></path><path d="M258.8,412l-4.4,1.94a3.21,3.21,0,0,0-.3,3.37c.94,1.83,4.39,12.8,4.39,12.8Z" style="fill:#2e353a;stroke:#2e353a;stroke-linecap:round;stroke-linejoin:round;stroke-width:1.0562248229980469px"></path><path d="M258.74,403.07l-14.41-8v1.61l6.48,12.93s1.06,1.2,2.17.4,5.67-4.71,5.67-4.71l.09-2.19" style="fill:#2e353a;stroke:#2e353a;stroke-linecap:round;stroke-linejoin:round;stroke-width:1.0562248229980469px"></path><polyline points="263 329.52 258.72 328.79 258.72 384.79" style="fill:none;stroke:#2e353a;stroke-linecap:round;stroke-linejoin:round;stroke-width:1.0562248229980469px"></polyline><line x1="87.37" y1="372.6" x2="449.9" y2="277.5" style="fill:none;stroke:#2e353a;stroke-linecap:round;stroke-linejoin:round;stroke-width:1.0562248229980469px"></line><line x1="276.96" y1="310.14" x2="421.9" y2="276.63" style="fill:none;stroke:#2e353a;stroke-linecap:round;stroke-linejoin:round;stroke-width:1.0562248229980469px"></line><line x1="55.15" y1="367.62" x2="258.64" y2="314.87" style="fill:none;stroke:#2e353a;stroke-linecap:round;stroke-linejoin:round;stroke-width:1.0562248229980469px"></line><line x1="247.11" y1="314.43" x2="422.72" y2="274.75" style="fill:none;stroke:#2e353a;stroke-linecap:round;stroke-linejoin:round;stroke-width:1.0562248229980469px"></line><path d="M436.15,290.13a.46.46,0,0,0-.21-.13l-12.27-3,27-7.11-.27-1.06-29.58,7.79a.44.44,0,0,0-.31-.09.58.58,0,0,0-.44.28h0l-117,30.76v-.91l-7.16,1.9v.89l-40.68,10.7-.36-.19-.17.32L206,343.14l-1.23-.56a1,1,0,0,0-1.19.18L192,345.92v.94l-25.35,6.68-.76-.4a1.13,1.13,0,0,0-1.49.47,1.26,1.26,0,0,0-.1.54L60.43,381.42l.28,1.06,22.36-5.87a1.06,1.06,0,0,0,.52,1.25l20.07,10.92,1.2,1.37L77,398.6l.31,1,60.5-18.27a1,1,0,0,0,.3.05,1,1,0,0,0,.83-.39l53-16v1.67l12.39-4v-1.41L226,354.73l.63.29a1,1,0,0,0,.45.1,1,1,0,0,0,1-.64,1,1,0,0,0,.1-.4l67.73-20.46v1.65l7.17-2.2v-1.61l144.16-43.52-.32-1.06Zm-259.6,63.38,6.92,8.68-6.92-3.57Zm-1.48-1.13-2.58,4.14-4.43-2.29Zm-24.81,8.08,7.2,7.68-7.2-3.73ZM149,359.24l-2,3.47-3.77-1.95Zm-8,2.12a1.06,1.06,0,0,0,.6,1.05l4.31,2.23-8.21,14.16-6.48-3.51-10.56-8.56Zm-15.15,11L120,369.18v-1.53Zm-6.93-3.76Zm-1-.54-.79-.42,1.22-.33Zm-32.91,8,6.58-1.73-.26.23L99.51,384Zm17.32,9.4-9.92-11.34,22.65-6a1.07,1.07,0,0,0,.55,1.14l1.21.65L106.5,387.75Zm4.65,4,.13-.17a1.1,1.1,0,0,0,.11-.57l10.56-18.26,1.12.6v14.79Zm13-3.93V371.73l15.34,8.32.82.67Zm29.18-8.82-10.11,3.09a1.13,1.13,0,0,0-.43-.49l8.22-14.18,2.31,1.19Zm0-12.9-1.21-.63,1.21-2.11Zm1.06,12.58v-9.51l11.62,6Zm10.14-6.77-10.1-10.76,14.57-3.83,6.46,3.34-7.94,12.82Zm15-.84-11,3.36a1.07,1.07,0,0,0-.16-.32l8-12.91,3.17,1.62Zm0-10.76-2-1.06,2-3.17Zm1.05,10.42v-7.39l9.07,4.71Zm15.4-4.64-3.48,1.05,3.48-5.47Zm0-6.47-4.46,7a1.22,1.22,0,0,0-.33-.27l-1.29-.67L176.72,352,192,348ZM285,325l.1-.2,5.37,8.17L285,331Zm-80.78,35.13v-7.68l5.28,6.09Zm0-9.37v-6l10,4.59-3.94,8.45ZM217.93,356l-6.42,1.94,3.78-8.1,2.64,1.21Zm0-7.39-1.71-.78,1.71-3.68Zm1.11,7v-4.11l5.42,2.47Zm0-6.54v-5.94l8.33,9.76Zm17.47,1.27-6.94,2.11,6.94-13.64Zm.05-14.1-8.19,16.12-9.51-11.08a.54.54,0,0,0-.49-.19.56.56,0,0,0-.43.3l-2.77,5.94-7.7-3.52,29.12-7.65ZM237.62,350V338.1l7.7,9.62Zm-.12-13.87a.83.83,0,0,0-.21-.16L254,331.58l-7.91,15.32Zm9.75,11,8.2-15.85,15.84-4.15,9.91,3.47L277.63,338Zm36.77-11-4.94,1.49,3.16-6.62,1.76.61Zm0-5.4-1.39-.48,1.39-2.9Zm0-5.92-2.44,5-8.84-3.09,11.28-3Zm.52-1.06h-.18l.2-.05Zm.58,12.07v-3.91l5.84,2Zm.48-12.37h0l1.62-.44,8.66,3-4.16,6.7ZM296,332.51l-3.52,1.06,3.52-5.68Zm0-7.33-7.4-2.57,7.4-1.93Zm123.34-37-1.62,2.86-4.57-1.23ZM409,290.94l-2.11,3.58L401.33,293Zm.49,1.35v3l-1.52-.43Zm-10.33,2.63,2.92,4.38-2.92-.83Zm-1.6-1.06-1.88,3.57-5.61-1.6Zm-9.83,4,3.59,4.85-3.59-1.05Zm-1.44-1.06-1.75,3.95-6.34-1.82Zm-8.85,4.09,3.75,4.68-3.75-1.12Zm-1.25-1.44-2.11,4L368,301.62Zm-11.2,3-2.81,5-7.54-2.27Zm-13.61,3.64-2.29,4.47-6.73-2.11Zm.12,2.19v3l-1.34-.41Zm-14.39,1.57-1.82,4.35-6.74-2.11Zm-33.92,20.48V328.5l2.75,1Zm0-2.67v-3.33L306,328.6Zm0-5.28v-2.53l7,2.47-3.09,6.06Zm10,5-5.13,1.49,3.17-6.21,1.92.68Zm0-4.87-1.54-.53,1.54-3Zm.52-6.41a.57.57,0,0,0-.46.3l-2.66,5.21-7.39-2.6v-.16l10.65-2.8a.09.09,0,0,0,0,.07.33.33,0,0,0-.16-.07Zm.59,11v-3.34l5,1.76Zm0-4.17v-4.56l4.23,6Zm-.07-6.51,8.37,2.61-2.66,5.45Zm11,7.39L320.85,325l2.81-5.76,1.52.48Zm0-4.84L324,318.5l1.16-2.38Zm1.11,4.51v-3.29l5.36,1.67h0Zm0-4.16v-4l4.39,5.28Zm-.13-5.83a.52.52,0,0,0-.49-.19.56.56,0,0,0-.43.31l-2.3,4.66-8-2.5,12.24-3.22a.35.35,0,0,0,.23.2l7.49,2.34-2.5,6Zm11,6.7-3.64,1.05,2.45-5.85,1.19.37Zm0-5.28-.88-.28.88-2.11Zm1.06,4.92V316l6.05,1.89Zm0-4.58V311l6.33,6.11Zm0-5.62,2.49-.66,7.86,2.44-2.81,5.49Zm8.61,7.58,2.8-5.46,1.73.53v3.54h.1Zm5.63-1.7v-2.88l4.7,1.46Zm0-3.75v-4.23l5.21,5.85Zm0-5.88.53-.14,8.66,2.61L359,313Zm12.63,5.83-4.87,1.47,2.51-4.5,2.36.7Zm0-3.17-1.94-.59,1.94-3.45Zm1.05,2.84v-1.65l2.74.83Zm0-2.51v-4.68l4,5.88Zm0-6.6h.13l7.24,2.18L371,309.25Zm10,6.08-4.12,1.24,2.55-4.85,1.57.46Zm0-4-1.18-.34,1.18-2.22Zm1.05,3.69v-2.53l4.13,1.24Zm.49-8.08,6.27,1.8-1.56,3.85Zm8.69,5.28-3.17,1,1.85-4.17,1.35.39Zm0-3.66-1.06-.3,1.06-2.29Zm1.11,3.33v-2.16l3.69,1.06Zm.26-8.34.52-.14,6.77,1.95-2.47,4.7Zm10.06,5.22-3.94,1.19,2.26-4.3,1.68.49Zm0-3.49-1.29-.37,1.29-2.45Zm1.11,3.17v-2l3.37,1Zm4.56-1.54-4.22-6.34.31-.08,6.65,1.89-2.72,4.56Zm1.46-.28,2.35-4,2,.56V298h.77Zm5.41-1.63v-1.47l2.5.72Zm0-2.33V292l3.16,4.46Zm.24-5.11.94-.25a.42.42,0,0,0,.23.18l5.28,1.42-2.46,4.31Zm9.22,4.57-4,1.22,2.36-4.14,1.65.44Zm0-3.33-1.23-.33,1.23-2.11Zm1.11,3v-1.89l3.25.87Zm0-2.72v-3.3l3.46,4.22Zm4.79,1.27.23-.18-4.31-5.54.35-.1h0l12.67,3.07Z" style="fill:#2e353a;stroke:#2e353a;stroke-linecap:round;stroke-linejoin:round;stroke-width:1.0562248229980469px"></path><line x1="59.44" y1="363.05" x2="229.58" y2="319.2" style="fill:none;stroke:#2e353a;stroke-linecap:round;stroke-linejoin:round;stroke-width:1.0562248229980469px"></line><line x1="219.8" y1="122.07" x2="219.8" y2="337.95" style="fill:none;stroke:#2e353a;stroke-linecap:round;stroke-linejoin:round;stroke-width:1.0562248229980469px"></line><line x1="193.55" y1="135.63" x2="193.55" y2="343.84" style="fill:none;stroke:#2e353a;stroke-linecap:round;stroke-linejoin:round;stroke-width:1.0562248229980469px"></line><line x1="148.94" y1="159.25" x2="148.94" y2="355.22" style="fill:none;stroke:#2e353a;stroke-linecap:round;stroke-linejoin:round;stroke-width:1.0562248229980469px"></line><line x1="65.39" y1="200.81" x2="65.39" y2="353.84" style="fill:none;stroke:#2e353a;stroke-linecap:round;stroke-linejoin:round;stroke-width:1.0562248229980469px"></line><line x1="173" y1="146.99" x2="173" y2="349.54" style="fill:none;stroke:#2e353a;stroke-linecap:round;stroke-linejoin:round;stroke-width:1.0562248229980469px"></line><line x1="123.14" y1="172.81" x2="123.14" y2="362.68" style="fill:none;stroke:#2e353a;stroke-linecap:round;stroke-linejoin:round;stroke-width:1.0562248229980469px"></line><line x1="282.79" y1="108.51" x2="282.79" y2="320.66" style="fill:none;stroke:#2e353a;stroke-linecap:round;stroke-linejoin:round;stroke-width:1.0562248229980469px"></line><line x1="297.67" y1="122.94" x2="297.67" y2="317.67" style="fill:none;stroke:#2e353a;stroke-linecap:round;stroke-linejoin:round;stroke-width:1.0562248229980469px"></line><line x1="309.04" y1="134.31" x2="309.04" y2="313.61" style="fill:none;stroke:#2e353a;stroke-linecap:round;stroke-linejoin:round;stroke-width:1.0562248229980469px"></line><line x1="322.6" y1="144.38" x2="322.6" y2="310.6" style="fill:none;stroke:#2e353a;stroke-linecap:round;stroke-linejoin:round;stroke-width:1.0562248229980469px"></line><line x1="333.54" y1="155.75" x2="333.54" y2="307.09" style="fill:none;stroke:#2e353a;stroke-linecap:round;stroke-linejoin:round;stroke-width:1.0562248229980469px"></line><line x1="345.35" y1="166.25" x2="345.35" y2="304.6" style="fill:none;stroke:#2e353a;stroke-linecap:round;stroke-linejoin:round;stroke-width:1.0562248229980469px"></line><line x1="354.1" y1="174.12" x2="354.1" y2="302.29" style="fill:none;stroke:#2e353a;stroke-linecap:round;stroke-linejoin:round;stroke-width:1.0562248229980469px"></line><line x1="363.72" y1="182.43" x2="363.72" y2="300.54" style="fill:none;stroke:#2e353a;stroke-linecap:round;stroke-linejoin:round;stroke-width:1.0562248229980469px"></line><line x1="372.47" y1="189.87" x2="372.47" y2="297.4" style="fill:none;stroke:#2e353a;stroke-linecap:round;stroke-linejoin:round;stroke-width:1.0562248229980469px"></line><line x1="381.66" y1="197.3" x2="381.66" y2="294.7" style="fill:none;stroke:#2e353a;stroke-linecap:round;stroke-linejoin:round;stroke-width:1.0562248229980469px"></line><line x1="389.97" y1="203.43" x2="389.97" y2="291.99" style="fill:none;stroke:#2e353a;stroke-linecap:round;stroke-linejoin:round;stroke-width:1.0562248229980469px"></line><line x1="398.28" y1="209.11" x2="398.28" y2="291.36" style="fill:none;stroke:#2e353a;stroke-linecap:round;stroke-linejoin:round;stroke-width:1.0562248229980469px"></line><line x1="404.84" y1="213.49" x2="404.84" y2="289.17" style="fill:none;stroke:#2e353a;stroke-linecap:round;stroke-linejoin:round;stroke-width:1.0562248229980469px"></line><line x1="411.84" y1="219.18" x2="411.84" y2="286.59" style="fill:none;stroke:#2e353a;stroke-linecap:round;stroke-linejoin:round;stroke-width:1.0562248229980469px"></line><line x1="419.28" y1="222.67" x2="419.28" y2="265.98" style="fill:none;stroke:#2e353a;stroke-linecap:round;stroke-linejoin:round;stroke-width:1.0562248229980469px"></line><line x1="426.27" y1="227.92" x2="426.27" y2="279.74" style="fill:none;stroke:#2e353a;stroke-linecap:round;stroke-linejoin:round;stroke-width:1.0562248229980469px"></line><line x1="279.3" y1="139.56" x2="279.3" y2="309.33" style="fill:none;stroke:#2e353a;stroke-linecap:round;stroke-linejoin:round;stroke-width:1.0562248229980469px"></line><line x1="291.98" y1="149.62" x2="291.98" y2="306.66" style="fill:none;stroke:#2e353a;stroke-linecap:round;stroke-linejoin:round;stroke-width:1.0562248229980469px"></line><line x1="305.98" y1="161" x2="305.98" y2="302.88" style="fill:none;stroke:#2e353a;stroke-linecap:round;stroke-linejoin:round;stroke-width:1.0562248229980469px"></line><line x1="315.6" y1="168.87" x2="315.6" y2="300.98" style="fill:none;stroke:#2e353a;stroke-linecap:round;stroke-linejoin:round;stroke-width:1.0562248229980469px"></line><line x1="326.1" y1="177.63" x2="326.1" y2="298.35" style="fill:none;stroke:#2e353a;stroke-linecap:round;stroke-linejoin:round;stroke-width:1.0562248229980469px"></line><line x1="336.6" y1="184.18" x2="336.6" y2="295.73" style="fill:none;stroke:#2e353a;stroke-linecap:round;stroke-linejoin:round;stroke-width:1.0562248229980469px"></line><line x1="378.59" y1="215.24" x2="378.59" y2="286.11" style="fill:none;stroke:#2e353a;stroke-linecap:round;stroke-linejoin:round;stroke-width:1.0562248229980469px"></line><line x1="221.12" y1="112.45" x2="221.12" y2="320.72" style="fill:none;stroke:#2e353a;stroke-linecap:round;stroke-linejoin:round;stroke-width:1.0562248229980469px"></line><line x1="203.62" y1="120.31" x2="203.62" y2="324.93" style="fill:none;stroke:#2e353a;stroke-linecap:round;stroke-linejoin:round;stroke-width:1.0562248229980469px"></line><line x1="184.38" y1="132.12" x2="184.38" y2="330.29" style="fill:none;stroke:#2e353a;stroke-linecap:round;stroke-linejoin:round;stroke-width:1.0562248229980469px"></line><line x1="164.25" y1="141.75" x2="164.25" y2="336.41" style="fill:none;stroke:#2e353a;stroke-linecap:round;stroke-linejoin:round;stroke-width:1.0562248229980469px"></line><line x1="144.57" y1="152.69" x2="144.57" y2="339.91" style="fill:none;stroke:#2e353a;stroke-linecap:round;stroke-linejoin:round;stroke-width:1.0562248229980469px"></line><line x1="120.51" y1="165.37" x2="120.51" y2="339.47" style="fill:none;stroke:#2e353a;stroke-linecap:round;stroke-linejoin:round;stroke-width:1.0562248229980469px"></line><line x1="69.76" y1="191.18" x2="69.76" y2="336.78" style="fill:none;stroke:#2e353a;stroke-linecap:round;stroke-linejoin:round;stroke-width:1.0562248229980469px"></line><polyline points="96.01 176.75 96.44 185.49 96.44 346.63" style="fill:none;stroke:#2e353a;stroke-linecap:round;stroke-linejoin:round;stroke-width:1.0562248229980469px"></polyline><line x1="249.4" y1="330.29" x2="249.4" y2="103.88" style="fill:none;stroke:#2e353a;stroke-linecap:round;stroke-linejoin:round;stroke-width:1.0562248229980469px"></line><path d="M271.85,99.1s-.29-3-2.76-3.91-4.76-1.3-6.33.29a7.23,7.23,0,0,0-1.94,3.35" style="fill:#2e353a;stroke:#2e353a;stroke-linecap:round;stroke-linejoin:round;stroke-width:1.0562248229980469px"></path><polygon points="258.6 326.99 258.08 256.5 260.02 253.92 259.5 195.09 260.67 193.53 260.29 145.6 261.45 143.78 260.8 98.83 264.43 97.92 265.21 143.53 263.78 144.69 264.43 193.67 263 194.96 263.78 254.56 262.48 256.63 262.75 328.15 258.6 326.99" style="fill:#F25F3A;stroke:#2e353a;stroke-linecap:round;stroke-linejoin:round;stroke-width:1.0562248229980469px"></polygon><polyline points="262.92 425.23 263 329.52 258.72 328.79 259.07 429.78" style="fill:#F25F3A;stroke:#2e353a;stroke-linecap:round;stroke-linejoin:round;stroke-width:1.0562248229980469px"></polyline><path d="M277.59,418.71V328.35s-6.64,1.76-10.47,1.17-4.12,0-4.12,0v94.2" style="fill:#2e353a;stroke:#2e353a;stroke-linecap:round;stroke-linejoin:round;stroke-width:1.0562248229980469px"></path><polyline points="264.62 94.61 265.92 91.14 267.36 91.14 269.11 95.19" style="fill:#2e353a;stroke:#2e353a;stroke-linecap:round;stroke-linejoin:round;stroke-width:1.0562248229980469px"></polyline><path d="M262.74,95.48s-117,70.33-222,116.69" style="fill:none;stroke:#2e353a;stroke-linecap:round;stroke-linejoin:round;stroke-width:3.1686744689941406px"></path><path d="M271.13,97.28s93,88.65,125.4,110.24S447,239.59,447,239.59" style="fill:none;stroke:#2e353a;stroke-linecap:round;stroke-linejoin:round;stroke-width:3.1686744689941406px"></path><path d="M255.88,327.76s3.75,3.17,12.95,2.11S283,325.45,283,325.45v-1.67l-6.33-1.06-.26-67.12L275.31,254l.26-58.3-1.32-2.33L273.89,146l-1.3-2.33-.26-44.14L264.43,98l.78,45.61-1.43,1.16.65,49L263,195l.78,59.6-1.3,2.12.27,71.51-4.15-1.16Z" style="fill:#2e353a;stroke:#2e353a;stroke-linecap:round;stroke-linejoin:round;stroke-width:1.0562248229980469px"></path></g></svg>