<svg xmlns:xlink="http://www.w3.org/1999/xlink" width="24" height="24" viewBox="0 0 24 24" fill="none" xmlns="http://www.w3.org/2000/svg">
<path d="M0.48267 15.3686C-0.18366 13.0908 -0.159594 10.6667 0.551823 8.40258C1.26324 6.13851 2.63006 4.13622 4.47945 2.6489C6.32884 1.16159 8.57774 0.256035 10.9418 0.0467556C13.3058 -0.162524 15.6788 0.333871 17.7608 1.47316C19.8427 2.61246 21.54 4.34349 22.6382 6.44737C23.7363 8.55125 24.1859 10.9335 23.9301 13.2929C23.6743 15.6523 22.7246 17.8828 21.2011 19.7025C19.6776 21.5222 17.6487 22.8492 15.371 23.5159C13.8584 23.9591 12.2734 24.0999 10.7064 23.9303C9.13935 23.7607 7.62113 23.2839 6.23847 22.5273C4.85581 21.7707 3.63581 20.749 2.6482 19.5207C1.66059 18.2923 0.924726 16.8814 0.48267 15.3686Z" fill="url(#paint0_linear_592_5333)"/>
<path d="M11.7691 14.918L16.4143 12.8516L12.0668 4.6577L7.25461 12.5858L11.7691 14.918Z" fill="white"/>
<path d="M12.0668 4.6577L11.9551 14.9235L7.2546 12.5859L12.0668 4.6577Z" fill="#E7E9EE"/>
<path d="M11.928 20.0847L16.7596 13.5947L11.928 15.7532L7.23847 13.3213L11.928 20.0847Z" fill="white"/>
<path d="M11.8963 10.5216L16.4155 12.8513L11.7702 14.9176L7.25572 12.5855L11.8963 10.5216Z" fill="#AEAEAE" fill-opacity="0.7"/>
<path d="M7.25572 12.5855L11.8963 10.5216L11.7702 14.9176L7.25572 12.5855Z" fill="#939393"/>
<path d="M7.22656 13.3362L11.9161 15.7681L11.9161 20.0848L7.22656 13.3362Z" fill="#E7E9EE"/>
<defs>
<linearGradient id="paint0_linear_592_5333" x1="24.6089" y1="24.5001" x2="-5.76254" y2="-7.29325" gradientUnits="userSpaceOnUse">
<stop stop-color="#242424"/>
<stop offset="1" stop-color="#9B9B9B" stop-opacity="0.94"/>
</linearGradient>
</defs>
</svg>