<svg xmlns:xlink="http://www.w3.org/1999/xlink" width="24" height="24" viewBox="0 0 24 24" fill="none" xmlns="http://www.w3.org/2000/svg">
<path d="M14.2602 15.5C14.2602 18.68 11.6802 21.26 8.50023 21.26C5.32023 21.26 2.74023 18.68 2.74023 15.5C2.74023 12.32 5.32023 9.73999 8.50023 9.73999C8.65023 9.73999 8.79023 9.73999 8.94023 9.75999C11.7702 9.96999 14.0302 12.23 14.2402 15.06C14.2402 15.21 14.2602 15.35 14.2602 15.5V15.5Z" stroke="#0A0B0D" stroke-width="1.5" stroke-linecap="round" stroke-linejoin="round"/>
<path d="M15.2799 14.3102C15.3599 14.3102 15.4299 14.3102 15.4999 14.3102C18.7199 14.3102 21.3199 11.7102 21.3199 8.49016C21.3199 8.33016 21.3199 8.20016 21.2999 8.04016C21.0799 5.19016 18.7999 2.90016 15.9399 2.68016C15.7799 2.68016 15.6499 2.66016 15.4899 2.66016C12.2699 2.66016 9.66992 5.26016 9.66992 8.48016C9.66992 8.56016 9.66992 8.63016 9.66992 8.70016" stroke="#0A0B0D" stroke-width="1.5" stroke-linecap="round" stroke-linejoin="round"/>
<path d="M1.75 7.25C1.75 4.21 4.21 1.75 7.25 1.75C6.94 2.16 6.61 2.65 6.3 3.23C6.05 3.69 5.85 4.13 5.7 4.52" stroke="#0A0B0D" stroke-width="1.5" stroke-linecap="round" stroke-linejoin="round"/>
<path d="M22.25 16.75C22.25 19.79 19.79 22.25 16.75 22.25C17.06 21.84 17.39 21.35 17.7 20.77C17.95 20.31 18.15 19.87 18.3 19.48" stroke="#0A0B0D" stroke-width="1.5" stroke-linecap="round" stroke-linejoin="round"/>
</svg>